<?xml version="1.0" encoding="UTF-8" standalone="no"?>
<svg width="300px" height="208px" version="1.1" xmlns="http://www.w3.org/2000/svg" xmlns:xlink="http://www.w3.org/1999/xlink" xmlns:sketch="http://www.bohemiancoding.com/sketch/ns">
    <title>Artboard 2</title>
    <description>Created with Sketch (http://www.bohemiancoding.com/sketch)</description>
    <defs></defs>
    <g id="Page 1" fill="rgb(223,223,223)" fill-rule="evenodd">
        <g id="Artboard 2">
            <g id="logo">
                <g id="G0V">
                    <path d="M158.453627,90.259879 C159.514283,91.281322 160.173609,92.5512241 160.173609,94.7321429 C160.173609,96.9130616 159.571615,98.2105703 158.510959,99.2320132 C157.16364,100.529522 154.268336,101.578571 148.850391,101.578571 C143.403779,101.578571 140.537142,100.446702 139.275821,99.2320132 C138.129166,98.1277506 137.527172,96.9130616 137.527172,94.7321429 C137.527172,92.5512241 138.1005,91.281322 139.218489,90.2046659 C140.537142,88.9347638 143.432446,87.8857143 148.850391,87.8857143 C154.268336,87.8857143 157.106307,88.9623704 158.453627,90.259879 Z M158.453627,90.259879" id="red dot" fill="rgb(214,30,19)"></path>
                    <path d="M71.1572634,88.0135447 C67.3372057,84.1694123 65.0585747,78.7066978 65.0585747,71.7602831 C65.0585747,65.2859548 67.0691314,59.5534766 71.1572634,55.4395806 C75.5804882,50.9884799 84.4269378,47.0769065 102.253874,47.0769065 C116.461808,47.0769065 127.452852,49.5722206 133.149429,52.4721801 L133.149429,62.0487907 C126.380555,58.3395401 115.188456,55.5070215 102.253874,55.5070215 C89.2522739,55.5070215 82.3493625,57.8674537 79.2665088,60.969736 C76.7868222,63.46505 75.5134696,66.9045369 75.5134696,71.7602831 C75.5134696,76.885793 76.9208593,80.2578389 79.2665088,82.6182711 C82.3493625,85.7205534 88.0459398,88.2833084 102.253874,88.2833084 C113.512992,88.2833084 120.616959,86.2600808 123.297701,83.562444 C125.107202,81.7415392 125.777388,79.9206343 125.777388,77.5602022 L96.959408,77.5602022 L96.959408,69.1975281 L136.433338,69.1975281 L136.433338,74.5928017 C136.433338,81.2020118 134.824893,85.4507897 131.406946,88.8902766 C127.184777,93.1390546 118.941495,96.4436596 102.253874,96.4436596 C101.701414,96.4436596 101.158552,96.4403073 100.624924,96.4336862 L70.9066926,113.222552 L82.907137,94.392864 C77.0637564,92.8127856 73.6142299,90.4859954 71.1572634,88.0135447 Z M203.412192,77.0022921 L234.610753,45.8037307 L244.218822,55.4118001 L213.020261,86.6103615 L204.413761,95.2168612 L178.792243,69.5953427 L187.398743,60.988843 L203.412192,77.0022921 Z M186.297248,94.175 C186.297248,101.366834 184.346897,106.591091 180.177181,110.797635 C178.15022,112.842498 175.252284,114.763799 171.07321,116.258917 C171.11466,117.45109 171.459356,119.844397 173.249266,122.897468 C176.136898,127.822939 178.868855,128.038975 178.868855,129.52846 C178.868855,131.017944 176.565141,131.772715 166.769377,125.256871 C163.038805,122.775407 161.018395,120.532922 159.946632,118.707292 C156.798135,119.075117 153.247108,119.278571 149.240578,119.278571 C131.620165,119.278571 122.809959,115.343417 118.371229,110.865483 C116.366917,108.843469 114.874304,106.608895 113.85779,104.054026 C117.595852,103.6641 120.899777,103.085961 123.821415,102.359677 C124.488386,103.808683 125.390463,105.045195 126.51768,106.231812 C129.466496,109.336017 136.168352,112.228571 148.901878,112.228571 C161.568385,112.228571 168.33726,109.547667 171.487132,106.231812 C173.966818,103.621457 175.374208,100.305602 175.374208,94.7321429 C175.374208,89.1586838 173.832781,85.9133785 171.353095,83.3030242 C168.203222,79.9871688 161.568385,77.2357143 148.901878,77.2357143 C147.732133,77.2357143 146.612685,77.2585782 145.541824,77.3026629 C145.570932,75.6037793 145.562108,73.8098972 145.562108,71.9107143 C145.562108,70.9590057 145.563461,70.0328281 145.560546,69.1311627 C146.742448,69.0917375 147.968557,69.0714286 149.240578,69.0714286 C166.860991,69.0714286 175.671197,73.006583 180.177181,77.5523649 C184.279643,81.6910618 186.297248,86.983166 186.297248,94.175 Z M186.297248,94.175" id="g0v" fill="rgb(0,0,0)"></path>
                </g>
                <path d="M109.039062,147.306539 L109.039062,145.440703 L114.636571,145.440703 L114.636571,147.306539 Z M119.709313,152.816587 L118.572319,155.819417 C117.872631,155.673649 117.143788,155.498727 116.240024,155.236343 L116.240024,156.723182 C114.724032,158.122559 112.712427,159.434475 109.913673,160.921313 C111.546279,161.358619 112.65412,161.621002 114.024343,161.941693 L112.799888,165.00283 C106.648459,163.224455 102.39202,161.941693 97.4067384,160.775545 L98.4562713,158.268327 C100.759413,158.705633 103.49986,159.376168 106.298615,160.046703 C108.572603,159.113784 109.592982,158.559864 111.31305,157.452024 L96.3863591,157.452024 L96.3863591,155.090575 C95.3659799,155.411265 94.5205228,155.615341 93.7042194,155.819417 L92.5963791,152.84574 C95.9782074,152.379281 99.9722633,151.271441 103.091708,149.726295 L97.7857364,149.726295 L97.7857364,147.918766 L103.237477,147.918766 L103.237477,149.667988 C103.616475,149.52222 103.966319,149.405605 104.316164,149.201529 L104.316164,144.566092 L96.9111256,144.566092 L96.9111256,149.376451 L93.6167583,149.376451 L93.6167583,142.204643 L104.316164,142.204643 L104.316164,141.096802 L94.6662912,141.096802 L94.6662912,138.618738 L117.610247,138.618738 L117.610247,141.096802 L107.960375,141.096802 L107.960375,142.204643 L118.89301,142.204643 L118.89301,149.376451 L115.598643,149.376451 L115.598643,144.566092 L107.960375,144.566092 L107.960375,149.143222 C108.339373,149.347297 108.660064,149.463912 109.155677,149.667988 L109.155677,147.918766 L114.636571,147.918766 L114.636571,149.726295 L109.359752,149.726295 C112.770734,151.271441 116.414946,152.379281 119.709313,152.816587 Z M97.7857364,147.306539 L97.7857364,145.440703 L103.354092,145.440703 L103.354092,147.306539 Z M106.152846,150.95075 C103.674782,152.350128 100.992643,153.662044 97.1735088,154.857345 L105.190774,154.857345 C104.578547,154.18681 104.257856,153.691198 103.703936,153.195585 L106.473537,152.116898 C107.173225,152.933202 107.989529,153.953581 108.572603,154.857345 L114.986415,154.857345 C111.546279,153.691198 108.951601,152.437589 106.152846,150.95075 Z M145.539485,149.697142 L145.539485,152.233513 L148.746391,152.233513 L148.746391,155.52788 L145.539485,155.52788 L145.539485,161.737617 C145.539485,163.720068 144.694028,164.711293 143.032267,164.711293 L139.067365,164.711293 L138.63006,161.067082 C140.058591,161.154543 140.874894,161.242004 141.108124,161.242004 C141.720351,161.242004 142.041042,160.921313 142.041042,160.250778 L142.041042,155.52788 L132.682707,155.52788 L132.682707,152.233513 L142.041042,152.233513 L142.041042,149.697142 L132.682707,149.697142 L132.682707,146.577697 L138.746675,146.577697 L138.746675,143.924711 L133.353241,143.924711 L133.353241,140.951034 L138.746675,140.951034 L138.746675,138.064818 L142.215964,138.064818 L142.215964,140.951034 L147.813473,140.951034 L147.813473,143.924711 L142.215964,143.924711 L142.215964,146.577697 L148.833852,146.577697 L148.833852,149.697142 Z M139.009058,160.017549 L136.297764,161.737617 C135.248231,159.900934 134.60685,158.705633 133.703086,157.42287 L136.18115,155.906878 C137.201529,157.277102 137.988679,158.472403 139.009058,160.017549 Z M128.746958,161.44608 L128.746958,159.638551 L126.210587,159.638551 L126.210587,161.621002 L122.974527,161.621002 L122.974527,140.018116 L131.983018,140.018116 L131.983018,161.44608 Z M128.746958,148.18115 L128.746958,143.195868 L126.210587,143.195868 L126.210587,148.18115 Z M128.746958,156.635721 L128.746958,151.125673 L126.210587,151.125673 L126.210587,156.635721 Z M177.929238,161.416926 L175.801018,164.740447 C173.935182,163.311916 172.331729,161.825078 170.990659,160.309086 C169.387206,161.795924 167.317293,163.311916 164.955844,164.740447 L162.71101,161.679309 C165.276535,160.425701 167.05491,159.405321 169.095669,157.597792 C167.929521,155.615341 166.850834,153.428814 166.413529,150.309369 C165.94707,151.329748 165.655533,151.650439 165.189074,152.350128 L163.469006,150.892443 L161.544862,150.892443 L161.544862,156.985565 C162.798471,156.519106 163.81885,156.110954 164.751769,155.673649 L165.130767,158.705633 C161.632323,160.33824 157.405038,162.029154 152.361449,163.282762 L151.253609,159.784319 L153.177753,159.405321 L153.177753,145.761393 L156.268044,145.761393 L156.268044,158.676479 C157.113501,158.443249 157.434192,158.268327 158.221341,158.064251 L158.250495,143.0501 L151.865836,143.0501 L151.836683,139.843194 L165.334842,139.843194 L165.363996,143.0501 L161.574016,143.0501 L161.544862,147.627229 L164.05208,147.627229 C165.538918,144.915936 166.967449,141.854798 167.871214,138.093972 L171.223888,138.881122 C170.903198,140.193038 170.582507,141.067649 170.145202,142.204643 L177.725162,142.204643 L177.725162,145.49901 L176.267477,145.49901 C175.888479,151.067365 174.780639,155.032267 173.148032,157.831022 C174.430794,159.230399 176.034248,160.279932 177.929238,161.416926 Z M168.891593,145.49901 C168.745824,145.878008 168.62921,146.082084 168.483441,146.344467 C168.9499,149.755449 169.707896,152.52505 170.990659,154.944806 C172.040192,152.495896 172.623266,149.493066 172.943956,145.49901 Z M204.63402,150.979904 L204.63402,161.329465 C204.63402,163.224455 203.788563,164.186527 202.126803,164.186527 L197.199828,164.186527 L196.762523,160.688084 C198.890743,160.775545 200.05689,160.89216 200.377581,160.89216 C200.989809,160.89216 201.310499,160.600623 201.310499,160.017549 L201.310499,150.979904 L193.176619,150.979904 L193.176619,147.685537 L201.310499,147.685537 L201.310499,144.478631 L204.63402,144.478631 L204.63402,147.685537 L206.937162,147.685537 L206.937162,150.979904 Z M185.859042,143.837249 L185.859042,150.251062 C185.859042,151.213134 185.829888,152.379281 185.742427,153.749505 C187.754032,150.804982 189.357485,147.772998 190.377864,144.15794 L193.526463,145.003397 C193.089158,146.519389 192.622699,147.831305 191.952164,149.318144 L191.952164,164.711293 L188.803565,164.711293 L188.803565,154.944806 C188.249645,155.848571 187.928954,156.402491 187.433341,157.073026 L185.654966,155.032267 C185.275968,159.026323 184.605433,161.941693 183.526747,164.740447 L180.31984,162.55392 C181.631757,159.492782 182.593828,155.061421 182.593828,150.251062 L182.593828,140.60119 L193.293234,140.60119 C193.089158,139.697425 193.001697,139.172659 192.797621,138.502124 L196.995753,138.152279 L197.316443,140.60119 L206.587318,140.60119 L206.587318,143.837249 Z M197.024906,158.647325 C195.71299,156.460798 194.984148,155.20719 193.818,153.516275 L196.325218,151.912822 C197.578826,153.545429 198.453437,154.915653 199.765353,156.752335 Z M197.024906,158.647325" id="零時政府" fill="rgb(0,0,0)"></path>
            </g>
        </g>
    </g>
</svg>